<svg width="200" height="21" viewBox="0 0 200 21" fill="none" xmlns="http://www.w3.org/2000/svg">
<path d="M21.0362 20H7.79221C2.16421 20 0.512207 18.264 0.512207 13.448V7.45601C0.512207 2.64001 2.16421 0.904008 7.79221 0.904008H21.0362V4.57201H7.98821C5.38421 4.57201 4.74021 5.32801 4.74021 7.68001V13.28C4.74021 15.66 5.38421 16.36 8.01621 16.36H21.0362V20Z" fill="#1A1A1A"/>
<path d="M35.993 20H30.925C25.297 20 23.645 18.264 23.645 13.448V11.404C23.645 6.56001 25.297 4.82401 30.925 4.82401H35.993C41.649 4.82401 43.301 6.56001 43.301 11.432V13.448C43.301 18.264 41.649 20 35.993 20ZM39.129 13.336V11.544C39.129 8.96801 38.457 8.40801 35.433 8.40801H31.485C28.517 8.40801 27.817 8.96801 27.817 11.544V13.336C27.817 15.856 28.517 16.472 31.485 16.472H35.433C38.457 16.472 39.129 15.856 39.129 13.336Z" fill="#1A1A1A"/>
<path d="M66.025 20H61.853V11.544C61.853 9.02401 61.153 8.40801 58.465 8.40801H53.929C51.297 8.40801 50.541 9.02401 50.541 11.544V20H46.369V11.404C46.369 6.56001 48.021 4.82401 53.649 4.82401H58.717C64.373 4.82401 66.025 6.56001 66.025 11.404V20Z" fill="#1A1A1A"/>
<path d="M92.4959 4.82401L82.4999 18.992C81.8839 19.832 81.1279 20.42 79.6439 20.42C78.1039 20.42 77.3759 19.86 76.7599 18.992L66.7639 4.82401H71.7479L79.6999 16.444L87.5679 4.82401H92.4959Z" fill="#1A1A1A"/>
<path d="M112.647 13.952H97.0514V14.652C97.0514 16.5 97.6114 16.836 99.5714 16.836H104.499V20H99.5714C94.7554 20 92.8794 18.264 92.8794 14.232V10.732C92.8794 6.30801 94.4194 4.82401 99.7674 4.82401H107.103C111.443 4.82401 112.647 6.56001 112.647 8.96801V13.952ZM108.475 11.264V9.30401C108.475 8.29601 108.027 8.04401 106.767 8.04401H99.8234C97.7234 8.04401 97.0514 8.26801 97.0514 10.452V11.264H108.475Z" fill="#1A1A1A"/>
<path d="M119.695 20H115.523V11.208C115.523 6.67201 117.511 4.82401 122.635 4.82401H125.351V8.21201H122.747C120.423 8.21201 119.695 8.82801 119.695 11.236V20Z" fill="#1A1A1A"/>
<path d="M132.979 20H128.723V8.21201H126.595V4.82401H128.723V0.540008H132.979V4.82401H137.767V8.21201H132.979V20Z" fill="#1A1A1A"/>
<path d="M169.905 20H165.985V7.42801L156.661 19.608C156.213 20.168 155.625 20.42 154.785 20.42C153.945 20.42 153.357 20.168 152.909 19.608L143.613 7.42801V20H139.749V2.22001C139.749 1.01601 140.729 0.484009 142.045 0.484009C143.053 0.484009 143.585 0.736009 144.061 1.38001L154.841 15.688L165.705 1.38001C166.181 0.764009 166.629 0.484009 167.609 0.484009C168.897 0.484009 169.905 1.01601 169.905 2.22001V20Z" fill="#1A1A1A"/>
<path d="M192.792 13.952H177.196V14.652C177.196 16.5 177.756 16.836 179.716 16.836H184.644V20H179.716C174.9 20 173.024 18.264 173.024 14.232V10.732C173.024 6.30801 174.564 4.82401 179.912 4.82401H187.248C191.588 4.82401 192.792 6.56001 192.792 8.96801V13.952ZM188.62 11.264V9.30401C188.62 8.29601 188.172 8.04401 186.912 8.04401H179.968C177.868 8.04401 177.196 8.26801 177.196 10.452V11.264H188.62Z" fill="#1A1A1A"/>
<path d="M197.894 20H196.522C195.486 20 195.094 19.636 195.094 18.74V16.444C195.094 15.576 195.486 15.184 196.522 15.184H197.894C198.958 15.184 199.35 15.576 199.35 16.444V18.74C199.35 19.636 198.958 20 197.894 20Z" fill="#1A1A1A"/>
</svg>
